<svg xmlns="http://www.w3.org/2000/svg" width="42" height="42" viewBox="0 0 42 42"><rect width="42" height="42" fill="none"/><path d="M7.875,1H0A1,1,0,0,1-1,0,1,1,0,0,1,0-1H7.875a1,1,0,0,1,1,1A1,1,0,0,1,7.875,1Z" transform="translate(32.813 22.313)"/><path d="M0,8.875a1,1,0,0,1-1-1V0A1,1,0,0,1,0-1,1,1,0,0,1,1,0V7.875A1,1,0,0,1,0,8.875Z" transform="translate(36.75 18.375)"/><path d="M9.844-1A10.844,10.844,0,0,1,20.688,9.844,10.844,10.844,0,0,1,9.844,20.688,10.844,10.844,0,0,1-1,9.844,10.844,10.844,0,0,1,9.844-1Zm0,19.688A8.844,8.844,0,1,0,1,9.844,8.854,8.854,0,0,0,9.844,18.688Z" transform="translate(7.875 6.563)"/><path d="M50.354,167.553a1,1,0,0,1-.767-.357,17.375,17.375,0,0,0-26.621,0,1,1,0,0,1-1.532-1.286,19.375,19.375,0,0,1,29.685,0,1,1,0,0,1-.766,1.643Z" transform="translate(-18.558 -133.74)"/></svg>