<svg xmlns="http://www.w3.org/2000/svg" width="42" height="42" viewBox="0 0 42 42"><rect width="42" height="42" transform="translate(0)" fill="none"/><path d="M15.75-1A16.745,16.745,0,0,1,27.594,27.594,16.75,16.75,0,1,1,9.23.317,16.646,16.646,0,0,1,15.75-1Zm0,31.5A14.75,14.75,0,1,0,1,15.75,14.767,14.767,0,0,0,15.75,30.5Z" transform="translate(5.25 5.25)"/><path d="M13.125,1H0A1,1,0,0,1-1,0,1,1,0,0,1,0-1H13.125a1,1,0,0,1,1,1A1,1,0,0,1,13.125,1Z" transform="translate(14.438 21)"/><path d="M0,14.125a1,1,0,0,1-1-1V0A1,1,0,0,1,0-1,1,1,0,0,1,1,0V13.125A1,1,0,0,1,0,14.125Z" transform="translate(21 14.438)"/></svg>