<svg xmlns="http://www.w3.org/2000/svg" width="42" height="42" viewBox="0 0 42 42"><rect width="42" height="42" fill="none"/><path d="M72.938,64.5H49.313A2.315,2.315,0,0,1,47,62.188V33.313A2.315,2.315,0,0,1,49.313,31h15.75a1,1,0,0,1,.707.293l9.188,9.187a1,1,0,0,1,.293.707v21A2.315,2.315,0,0,1,72.938,64.5ZM49.313,33a.313.313,0,0,0-.312.313V62.188a.313.313,0,0,0,.313.313H72.938a.313.313,0,0,0,.313-.312V41.6l-8.6-8.6Z" transform="translate(-40.125 -26.75)"/><path d="M161.188,42.188H152a1,1,0,0,1-1-1V32a1,1,0,0,1,2,0v8.188h8.188a1,1,0,0,1,0,2Z" transform="translate(-127.063 -26.75)"/><path d="M7.875,1H0A1,1,0,0,1-1,0,1,1,0,0,1,0-1H7.875a1,1,0,0,1,1,1A1,1,0,0,1,7.875,1Z" transform="translate(17.063 24.938)"/><path d="M0,8.875a1,1,0,0,1-1-1V0A1,1,0,0,1,0-1,1,1,0,0,1,1,0V7.875A1,1,0,0,1,0,8.875Z" transform="translate(21 21)"/></svg>