<svg xmlns="http://www.w3.org/2000/svg" width="18" height="18" viewBox="0 0 18 18"><rect width="18" height="18" fill="none"/><path d="M1-.5H11.375a1.5,1.5,0,0,1,1.5,1.5V11.375a1.5,1.5,0,0,1-1.5,1.5H1a1.5,1.5,0,0,1-1.5-1.5V1A1.5,1.5,0,0,1,1-.5ZM11.375,11.875a.5.5,0,0,0,.5-.5V1a.5.5,0,0,0-.5-.5H1A.5.5,0,0,0,.5,1V11.375a.5.5,0,0,0,.5.5Z" transform="translate(2.813 2.813)"/><path d="M0,2.75a.5.5,0,0,1-.5-.5V0A.5.5,0,0,1,0-.5.5.5,0,0,1,.5,0V2.25A.5.5,0,0,1,0,2.75Z" transform="translate(12.375 1.688)"/><path d="M0,2.75a.5.5,0,0,1-.5-.5V0A.5.5,0,0,1,0-.5.5.5,0,0,1,.5,0V2.25A.5.5,0,0,1,0,2.75Z" transform="translate(5.625 1.688)"/><path d="M12.375.5H0A.5.5,0,0,1-.5,0,.5.5,0,0,1,0-.5H12.375a.5.5,0,0,1,.5.5A.5.5,0,0,1,12.375.5Z" transform="translate(2.813 6.188)"/><path d="M93.779,131.594a.5.5,0,0,1-.344-.137l-1.779-1.687a.5.5,0,0,1,.688-.726l1.436,1.362,2.94-2.77a.5.5,0,1,1,.686.728l-3.284,3.094A.5.5,0,0,1,93.779,131.594Z" transform="translate(-85.531 -119)"/></svg>