<svg xmlns="http://www.w3.org/2000/svg" width="18" height="18" viewBox="0 0 18 18"><path d="M-3005-4540h-12a3,3,0,0,1-3-3v-12a3,3,0,0,1,3-3h12a3,3,0,0,1,3,3v12A3,3,0,0,1-3005-4540Zm-10.375-9.75a.74.74,0,0,0-.53.22.745.745,0,0,0-.221.531.75.75,0,0,0,.221.531l3.062,3.063a.748.748,0,0,0,.531.219.743.743,0,0,0,.53-.219l6.125-6.126a.746.746,0,0,0,.22-.531.751.751,0,0,0-.22-.531.749.749,0,0,0-.531-.218.748.748,0,0,0-.53.218l-5.595,5.6-2.532-2.533A.745.745,0,0,0-3015.375-4549.75Z" transform="translate(3020 4558)"/></svg>