<svg xmlns="http://www.w3.org/2000/svg" width="18.24" height="18" viewBox="0 0 18.24 18"><g transform="translate(-0.122 0)"><rect width="18" height="18" transform="translate(0.362 0)" fill="none"/><path d="M0,7.6a.5.5,0,0,1-.354-.146.5.5,0,0,1,0-.707l7.1-7.1a.5.5,0,0,1,.707,0,.5.5,0,0,1,0,.707l-7.1,7.1A.5.5,0,0,1,0,7.6Z" transform="translate(5.691 5.575)"/><path d="M0,12.664a.5.5,0,0,1-.354-.146.5.5,0,0,1,0-.707L11.811-.354a.5.5,0,0,1,.707,0,.5.5,0,0,1,0,.707L.354,12.518A.5.5,0,0,1,0,12.664Z" transform="translate(0.622 0.507)"/><path d="M3.421.5H0A.5.5,0,0,1-.5,0,.5.5,0,0,1,0-.5H3.421a.5.5,0,0,1,.5.5A.5.5,0,0,1,3.421.5Z" transform="translate(10.448 12.752) rotate(-45)"/></g></svg>