<svg xmlns="http://www.w3.org/2000/svg" width="18" height="18" viewBox="0 0 18 18"><rect width="18" height="18" fill="none"/><path d="M58.688,46H48.562A1.064,1.064,0,0,1,47.5,44.938V32.562A1.064,1.064,0,0,1,48.562,31.5h6.75a.5.5,0,0,1,.354.146L59.6,35.584a.5.5,0,0,1,.146.354v9A1.064,1.064,0,0,1,58.688,46ZM48.562,32.5a.063.063,0,0,0-.062.063V44.938a.063.063,0,0,0,.063.063H58.688a.063.063,0,0,0,.063-.062V36.145L55.105,32.5Z" transform="translate(-44.625 -29.75)"/><path d="M155.938,36.438H152a.5.5,0,0,1-.5-.5V32a.5.5,0,1,1,1,0v3.438h3.438a.5.5,0,0,1,0,1Z" transform="translate(-141.313 -29.75)"/><path d="M4.5.5H0A.5.5,0,0,1-.5,0,.5.5,0,0,1,0-.5H4.5A.5.5,0,0,1,5,0,.5.5,0,0,1,4.5.5Z" transform="translate(6.75 9.563)"/><path d="M4.5.5H0A.5.5,0,0,1-.5,0,.5.5,0,0,1,0-.5H4.5A.5.5,0,0,1,5,0,.5.5,0,0,1,4.5.5Z" transform="translate(6.75 11.813)"/></svg>