<svg xmlns="http://www.w3.org/2000/svg" width="18" height="18" viewBox="0 0 18 18">
  <g id="invalid" transform="translate(-1086 -816)">
    <rect id="Rectangle_8759" data-name="Rectangle 8759" width="18" height="18" transform="translate(1086 816)" fill="#191e26" opacity="0"/>
    <path id="Subtraction_1" data-name="Subtraction 1" d="M2996,6441a8,8,0,1,1,8-8A8.009,8.009,0,0,1,2996,6441Zm0-5a1,1,0,1,0,1,1A1,1,0,0,0,2996,6436Zm0-7.751a.751.751,0,0,0-.75.75v5a.75.75,0,0,0,1.5,0v-5A.751.751,0,0,0,2996,6428.249Z" transform="translate(-1901 -5608)" fill="#191e26"/>
  </g>
</svg>
