<svg xmlns="http://www.w3.org/2000/svg" width="18" height="18" viewBox="0 0 18 18"><rect width="18" height="18" fill="none"/><path d="M40.563,39.5H48.77a1.049,1.049,0,0,1,.744.307l3.052,3.052a1.049,1.049,0,0,1,.308.749v8.2a1.064,1.064,0,0,1-1.062,1.063H40.563A1.064,1.064,0,0,1,39.5,51.812V40.562A1.064,1.064,0,0,1,40.563,39.5Zm11.25,12.375a.063.063,0,0,0,.063-.062V43.607a.056.056,0,0,0-.016-.041l-3.051-3.051a.054.054,0,0,0-.038-.015v0H40.563a.063.063,0,0,0-.062.063v11.25a.063.063,0,0,0,.063.063Z" transform="translate(-37.188 -37.187)"/><path d="M86.75,149.563a.5.5,0,0,1-.5-.5v-4.5a.063.063,0,0,0-.062-.062H80.563a.063.063,0,0,0-.062.063v4.5a.5.5,0,0,1-1,0v-4.5a1.064,1.064,0,0,1,1.063-1.062h5.625a1.064,1.064,0,0,1,1.063,1.063v4.5A.5.5,0,0,1,86.75,149.563Z" transform="translate(-74.375 -133.875)"/><path d="M3.938.5H0A.5.5,0,0,1-.5,0,.5.5,0,0,1,0-.5H3.938a.5.5,0,0,1,.5.5A.5.5,0,0,1,3.938.5Z" transform="translate(6.75 5.063)"/></svg>