<svg xmlns="http://www.w3.org/2000/svg" width="18" height="18" viewBox="0 0 18 18"><rect width="18" height="18" fill="none"/><path d="M179.575,55.575H176.2a.5.5,0,0,1,0-1h2.875V51.7a.5.5,0,0,1,1,0v3.375A.5.5,0,0,1,179.575,55.575Z" transform="translate(-163.811 -48.065)"/><path d="M76.938,44.706a.5.5,0,0,1-.353-.146l-2.391-2.384a5.68,5.68,0,0,0-8.04,0,.5.5,0,1,1-.708-.707,6.68,6.68,0,0,1,9.454,0l2.39,2.383a.5.5,0,0,1-.353.854Z" transform="translate(-61.173 -37.196)"/><path d="M31.8,160.175a.5.5,0,0,1-.5-.5V156.3a.5.5,0,0,1,.5-.5h3.375a.5.5,0,0,1,0,1H32.3v2.875A.5.5,0,0,1,31.8,160.175Z" transform="translate(-29.564 -145.31)"/><path d="M38.564,161a6.636,6.636,0,0,1-4.727-1.96l-2.39-2.383a.5.5,0,1,1,.706-.708l2.391,2.384a5.68,5.68,0,0,0,8.04,0,.5.5,0,1,1,.708.707A6.636,6.636,0,0,1,38.564,161Z" transform="translate(-29.564 -145.31)"/></svg>