<svg xmlns="http://www.w3.org/2000/svg" width="18" height="18" viewBox="0 0 18 18"><rect width="18" height="18" fill="none"/><path d="M91.906,19.453a.5.5,0,0,1-.354-.146l-2.6-2.6-2.6,2.6a.5.5,0,0,1-.707-.707L88.6,15.646a.5.5,0,0,1,.707,0L92.26,18.6a.5.5,0,0,1-.354.854Z" transform="translate(-79.953 -14.875)"/><path d="M0,8.375a.5.5,0,0,1-.5-.5V0A.5.5,0,0,1,0-.5.5.5,0,0,1,.5,0V7.875A.5.5,0,0,1,0,8.375Z" transform="translate(9 1.125)"/><path d="M58.688,104.938H48.563a1.064,1.064,0,0,1-1.062-1.062V96.563A1.064,1.064,0,0,1,48.563,95.5H50.25a.5.5,0,0,1,0,1H48.563a.063.063,0,0,0-.062.063v7.313a.063.063,0,0,0,.063.063H58.688a.063.063,0,0,0,.063-.062V96.563a.063.063,0,0,0-.062-.062H57a.5.5,0,0,1,0-1h1.688a1.064,1.064,0,0,1,1.063,1.063v7.313A1.064,1.064,0,0,1,58.688,104.938Z" transform="translate(-44.625 -89.25)"/></svg>