<svg xmlns="http://www.w3.org/2000/svg" width="18" height="18" viewBox="0 0 18 18"><rect width="18" height="18" fill="none"/><path d="M97.836,153.728a.747.747,0,0,1-.519-.209,2.808,2.808,0,0,0-3.9,0,.75.75,0,0,1-1.038-1.082,4.3,4.3,0,0,1,5.974,0,.75.75,0,0,1-.519,1.291Z" transform="translate(-86.368 -141.299)"/><path d="M68.7,106.739a.747.747,0,0,1-.524-.213,6.161,6.161,0,0,0-8.656,0,.75.75,0,0,1-1.048-1.074,7.7,7.7,0,0,1,10.751,0,.75.75,0,0,1-.524,1.287Z" transform="translate(-54.852 -96.7)"/><path d="M39.57,59.734a.747.747,0,0,1-.526-.216,9.6,9.6,0,0,0-13.417,0,.75.75,0,1,1-1.053-1.068,11.058,11.058,0,0,1,15.523,0,.75.75,0,0,1-.526,1.284Z" transform="translate(-23.335 -52.079)"/><circle cx="0.844" cy="0.844" r="0.844" transform="translate(8.156 13.219)"/></svg>