<svg xmlns="http://www.w3.org/2000/svg" width="30" height="30" viewBox="0 0 30 30"><rect width="30" height="30" fill="none"/><path d="M65.813,55.5H48.938A1.94,1.94,0,0,1,47,53.563V32.938A1.94,1.94,0,0,1,48.938,31h11.25a1,1,0,0,1,.707.293l6.562,6.562a1,1,0,0,1,.293.707v15A1.94,1.94,0,0,1,65.813,55.5ZM49,53.5H65.75V38.977L59.773,33H49Z" transform="translate(-42.375 -28.25)"/><path d="M158.563,39.563H152a1,1,0,0,1-1-1V32a1,1,0,0,1,2,0v5.563h5.563a1,1,0,0,1,0,2Z" transform="translate(-134.188 -28.25)"/><path d="M7.5,1H0A1,1,0,0,1-1,0,1,1,0,0,1,0-1H7.5a1,1,0,0,1,1,1A1,1,0,0,1,7.5,1Z" transform="translate(11.25 15.938)"/><path d="M7.5,1H0A1,1,0,0,1-1,0,1,1,0,0,1,0-1H7.5a1,1,0,0,1,1,1A1,1,0,0,1,7.5,1Z" transform="translate(11.25 19.688)"/></svg>