<svg xmlns="http://www.w3.org/2000/svg" width="24" height="24" viewBox="0 0 24 24"><rect width="24" height="24" fill="none"/><path d="M44.553,51.5a4.992,4.992,0,0,1-3.532-8.524l9.307-9.438.02-.019a3.5,3.5,0,0,1,4.944,4.944l-.015.015L45.968,47.92l-.02.019a2,2,0,0,1-2.825-2.825l.014-.015,7.809-7.941a.5.5,0,1,1,.713.7l-7.8,7.933a1,1,0,0,0,1.409,1.414l9.291-9.422a2.5,2.5,0,0,0-3.528-3.533l-9.3,9.43a3.995,3.995,0,1,0,5.647,5.652l7.7-7.679a.5.5,0,1,1,.706.708l-7.7,7.678A4.979,4.979,0,0,1,44.553,51.5Z" transform="translate(-36.303 -30.009)"/></svg>