<svg xmlns="http://www.w3.org/2000/svg" width="24" height="24" viewBox="0 0 24 24"><rect width="24" height="24" fill="none"/><path d="M0-.5H9a.5.5,0,0,1,.5.5V4.5A.5.5,0,0,1,9,5H0a.5.5,0,0,1-.5-.5V0A.5.5,0,0,1,0-.5ZM8.5.5H.5V4h8Z" transform="translate(7.5 6)"/><path d="M2-.5H16A2.5,2.5,0,0,1,18.5,2V13A2.5,2.5,0,0,1,16,15.5H2A2.5,2.5,0,0,1-.5,13V2A2.5,2.5,0,0,1,2-.5Zm14,15A1.5,1.5,0,0,0,17.5,13V2A1.5,1.5,0,0,0,16,.5H2A1.5,1.5,0,0,0,.5,2V13A1.5,1.5,0,0,0,2,14.5Z" transform="translate(19.5 3) rotate(90)"/><circle cx="1.125" cy="1.125" r="1.125" transform="translate(7.125 12.75)" fill="rgba(0,0,0,0)"/><circle cx="1.125" cy="1.125" r="1.125" transform="translate(10.875 12.75)" fill="rgba(0,0,0,0)"/><circle cx="1.125" cy="1.125" r="1.125" transform="translate(14.625 12.75)" fill="rgba(0,0,0,0)"/><circle cx="1.125" cy="1.125" r="1.125" transform="translate(7.125 16.5)" fill="rgba(0,0,0,0)"/><circle cx="1.125" cy="1.125" r="1.125" transform="translate(10.875 16.5)" fill="rgba(0,0,0,0)"/><circle cx="1.125" cy="1.125" r="1.125" transform="translate(14.625 16.5)" fill="rgba(0,0,0,0)"/></svg>