<svg xmlns="http://www.w3.org/2000/svg" width="24" height="24" viewBox="0 0 24 24"><rect width="24" height="24" fill="none"/><path d="M48.5,56.25h-15a2,2,0,0,1-2-2V43.75a2,2,0,0,1,2-2h2.732l1.352-2.027A.5.5,0,0,1,38,39.5h6a.5.5,0,0,1,.416.223l1.352,2.027H48.5a2,2,0,0,1,2,2v10.5A2,2,0,0,1,48.5,56.25Zm-15-13.5a1,1,0,0,0-1,1v10.5a1,1,0,0,0,1,1h15a1,1,0,0,0,1-1V43.75a1,1,0,0,0-1-1h-3a.5.5,0,0,1-.416-.223L43.732,40.5H38.268l-1.352,2.027a.5.5,0,0,1-.416.223Z" transform="translate(-29 -36.25)"/><path d="M3.375-.5A3.875,3.875,0,1,1-.5,3.375,3.879,3.879,0,0,1,3.375-.5Zm0,6.75A2.875,2.875,0,1,0,.5,3.375,2.878,2.878,0,0,0,3.375,6.25Z" transform="translate(8.625 9)"/></svg>