<svg xmlns="http://www.w3.org/2000/svg" width="24" height="24" viewBox="0 0 24 24"><rect width="24" height="24" fill="none"/><path d="M59.25,80H48.75A1.752,1.752,0,0,1,47,78.25V64.75A1.752,1.752,0,0,1,48.75,63h7.5a1,1,0,0,1,.707.293l3.75,3.75A1,1,0,0,1,61,67.75v10.5A1.752,1.752,0,0,1,59.25,80ZM49,78H59V68.164L55.836,65H49Z" transform="translate(-43.5 -58)"/><path d="M91.25,48H89a1,1,0,0,1,0-2h2V36.164L87.836,33H81v2a1,1,0,0,1-2,0V32.75A1.752,1.752,0,0,1,80.75,31h7.5a1,1,0,0,1,.707.293l3.75,3.75A1,1,0,0,1,93,35.75v10.5A1.752,1.752,0,0,1,91.25,48Z" transform="translate(-72.5 -29)"/><path d="M4.5,1H0A1,1,0,0,1-1,0,1,1,0,0,1,0-1H4.5a1,1,0,0,1,1,1A1,1,0,0,1,4.5,1Z" transform="translate(8.25 14.25)"/><path d="M4.5,1H0A1,1,0,0,1-1,0,1,1,0,0,1,0-1H4.5a1,1,0,0,1,1,1A1,1,0,0,1,4.5,1Z" transform="translate(8.25 17.25)"/></svg>