<svg xmlns="http://www.w3.org/2000/svg" width="24" height="24" viewBox="0 0 24 24"><rect width="24" height="24" fill="none"/><path d="M55.75,52.79h-4.5a1.752,1.752,0,0,1-1.75-1.75V46.79H47v4.25a1.752,1.752,0,0,1-1.75,1.75h-4.5A1.752,1.752,0,0,1,39,51.04V42.368q0-.008,0-.016a1.788,1.788,0,0,1,.557-1.264l.014-.013,7.5-6.816a1.75,1.75,0,0,1,2.36,0l7.5,6.813.014.013a1.788,1.788,0,0,1,.557,1.264q0,.008,0,.016V51.04A1.752,1.752,0,0,1,55.75,52.79Zm-4.25-2h4V42.479L48.25,35.89,41,42.479V50.79h4V46.54a1.752,1.752,0,0,1,1.75-1.75h3a1.752,1.752,0,0,1,1.75,1.75Z" transform="translate(-36.25 -31.54)"/></svg>