<svg xmlns="http://www.w3.org/2000/svg" width="24" height="24" viewBox="0 0 24 24"><rect width="24" height="24" fill="none"/><path d="M6,.5H0A.5.5,0,0,1-.5,0,.5.5,0,0,1,0-.5H6a.5.5,0,0,1,.5.5A.5.5,0,0,1,6,.5Z" transform="translate(10.5 10.5)"/><path d="M6,.5H0A.5.5,0,0,1-.5,0,.5.5,0,0,1,0-.5H6a.5.5,0,0,1,.5.5A.5.5,0,0,1,6,.5Z" transform="translate(10.5 13.5)"/><path d="M2-.5H14.5A2.5,2.5,0,0,1,17,2V14.5A2.5,2.5,0,0,1,14.5,17H2A2.5,2.5,0,0,1-.5,14.5V2A2.5,2.5,0,0,1,2-.5ZM14.5,16A1.5,1.5,0,0,0,16,14.5V2A1.5,1.5,0,0,0,14.5.5H2A1.5,1.5,0,0,0,.5,2V14.5A1.5,1.5,0,0,0,2,16Z" transform="translate(3.75 3.75)"/><path d="M0,17a.5.5,0,0,1-.5-.5V0A.5.5,0,0,1,0-.5.5.5,0,0,1,.5,0V16.5A.5.5,0,0,1,0,17Z" transform="translate(7.5 3.75)"/></svg>