<svg xmlns="http://www.w3.org/2000/svg" width="24" height="24" viewBox="0 0 24 24"><rect width="24" height="24" fill="none"/><path d="M9-.5A9.5,9.5,0,1,1-.5,9,9.511,9.511,0,0,1,9-.5Zm0,18A8.5,8.5,0,1,0,.5,9,8.51,8.51,0,0,0,9,17.5Z" transform="translate(3 3)"/><path d="M89,85.55a.5.5,0,0,1-.5-.5V81.86l-4-8.667-4,8.667v3.19a.5.5,0,0,1-1,0v-3.3a.5.5,0,0,1,.046-.21l4.5-9.75a.5.5,0,0,1,.908,0l4.5,9.75a.5.5,0,0,1,.046.21v3.3A.5.5,0,0,1,89,85.55Z" transform="translate(-72.5 -65.25)"/><path d="M132.5,170.75a.5.5,0,0,1-.5-.5,1.75,1.75,0,0,0-3.5,0,.5.5,0,0,1-1,0,2.75,2.75,0,0,1,5.5,0A.5.5,0,0,1,132.5,170.75Z" transform="translate(-116 -152.25)"/><path d="M84.5,173.75a.5.5,0,0,1-.5-.5v-3a1.75,1.75,0,0,0-3.5,0,.5.5,0,0,1-1,0,2.75,2.75,0,0,1,5.5,0v3A.5.5,0,0,1,84.5,173.75Z" transform="translate(-72.5 -152.25)"/><path d="M4.838.5H0A.5.5,0,0,1-.5,0,.5.5,0,0,1,0-.5H4.838a.5.5,0,0,1,.5.5A.5.5,0,0,1,4.838.5Z" transform="translate(9.581 12)"/></svg>