<svg xmlns="http://www.w3.org/2000/svg" width="24" height="24" viewBox="0 0 24 24"><rect width="24" height="24" fill="none"/><path d="M4.5-1A5.5,5.5,0,1,1-1,4.5,5.506,5.506,0,0,1,4.5-1Zm0,9A3.5,3.5,0,1,0,1,4.5,3.5,3.5,0,0,0,4.5,8Z" transform="translate(7.5 7.5)"/><path d="M30.722,27.9a1,1,0,0,1,.515.143l2.128,1.277c.226-.008.451-.008.678,0l2.119-1.268a1,1,0,0,1,.815-.1,10.691,10.691,0,0,1,3.954,2.277,1,1,0,0,1,.326.756l-.042,2.473q.184.289.343.594l2.156,1.2a1,1,0,0,1,.49.656,10.634,10.634,0,0,1,.01,4.556,1,1,0,0,1-.492.661l-2.165,1.2q-.158.3-.343.593l.042,2.473a1,1,0,0,1-.326.756,10.678,10.678,0,0,1-3.938,2.284,1,1,0,0,1-.822-.094l-2.128-1.277c-.226.008-.451.008-.678,0L31.245,48.33a1,1,0,0,1-.815.1,10.692,10.692,0,0,1-3.954-2.277,1,1,0,0,1-.326-.756l.042-2.468c-.122-.195-.237-.395-.343-.6l-2.157-1.2a1,1,0,0,1-.49-.656,10.634,10.634,0,0,1-.01-4.556,1,1,0,0,1,.492-.661l2.165-1.2q.158-.3.343-.593l-.042-2.473a1,1,0,0,1,.326-.756,10.678,10.678,0,0,1,3.938-2.284A1,1,0,0,1,30.722,27.9Zm2.391,3.434a1,1,0,0,1-.514-.143L30.61,30a8.667,8.667,0,0,0-2.452,1.423l.039,2.318a1,1,0,0,1-.18.589,5.918,5.918,0,0,0-.505.874,1,1,0,0,1-.421.45l-2.028,1.123A8.645,8.645,0,0,0,25.07,39.6l2.022,1.124a1,1,0,0,1,.418.447,6.53,6.53,0,0,0,.512.894,1,1,0,0,1,.174.581l-.039,2.308a8.7,8.7,0,0,0,2.459,1.416L32.6,45.189a1,1,0,0,1,.585-.139,7.311,7.311,0,0,0,1.039,0,1,1,0,0,1,.586.14L36.8,46.383a8.667,8.667,0,0,0,2.452-1.423l-.039-2.318a1,1,0,0,1,.18-.589,5.916,5.916,0,0,0,.505-.874,1,1,0,0,1,.421-.45l2.028-1.123a8.645,8.645,0,0,0-.007-2.829l-2.022-1.124A1,1,0,0,1,39.9,35.2a5.918,5.918,0,0,0-.505-.874,1,1,0,0,1-.18-.589l.039-2.317a8.7,8.7,0,0,0-2.459-1.416l-1.982,1.186a1,1,0,0,1-.585.139,7.312,7.312,0,0,0-1.039,0Z" transform="translate(-21.704 -26.191)"/></svg>