<svg xmlns="http://www.w3.org/2000/svg" width="24" height="24" viewBox="0 0 24 24"><rect width="24" height="24" fill="none"/><path d="M4.875-1A5.875,5.875,0,1,1-1,4.875,5.882,5.882,0,0,1,4.875-1Zm0,9.75A3.875,3.875,0,1,0,1,4.875,3.879,3.879,0,0,0,4.875,8.75Z" transform="translate(3.375 5.25)"/><path d="M156.722,66.75a1,1,0,0,1,0-2,3.875,3.875,0,0,0,0-7.75,4.105,4.105,0,0,0-1.06.143,1,1,0,0,1-.524-1.93A6.112,6.112,0,0,1,156.719,55a5.875,5.875,0,1,1,0,11.75Z" transform="translate(-140.831 -50.75)"/><path d="M16,164.5a1,1,0,0,1-.817-1.575,9.25,9.25,0,0,1,15.136,0,1,1,0,1,1-1.636,1.15,7.25,7.25,0,0,0-11.864,0A1,1,0,0,1,16,164.5Z" transform="translate(-14.5 -144.997)"/><path d="M176.251,164.506a1,1,0,0,1-.819-.426A7.247,7.247,0,0,0,169.505,161H169.5a1,1,0,0,1,0-2h.006a9.249,9.249,0,0,1,7.563,3.932,1,1,0,0,1-.818,1.575Z" transform="translate(-153.609 -145)"/></svg>